# xmcd
#
# Track frame offsets:
#	150
#	13986
#	35468
#	48650
#	63862
#	84448
#
# Disc length: 1319 seconds
#
# Revision: 1
# Processed by: cddbd v1.5.1PL2 Copyright (c) Steve Scherf et al.
# Submitted via: audiograbber 1.83.01
#
DISCID=47052506
DTITLE=Robert Reynolds - Audrey In A Dream
DYEAR=2003
DGENRE=
TTITLE0=She Brings The Rain
TTITLE1=Carolina
TTITLE2=Mama's Dogs
TTITLE3=Dragonfly
TTITLE4=Waiting On A Train
TTITLE5=Audrey In A Dream
EXTD=
EXTT0=
EXTT1=
EXTT2=
EXTT3=
EXTT4=
EXTT5=
PLAYORDER=
